<svg xmlns="http://www.w3.org/2000/svg" version="1.1" xmlns:xlink="http://www.w3.org/1999/xlink" xmlns:svgjs="http://svgjs.dev/svgjs" width="1000" height="623" viewBox="0 0 1000 623"><g transform="matrix(1,0,0,1,-0.6060606060606233,0.2522267206477409)"><svg viewBox="0 0 396 247" data-background-color="#ffffff" preserveAspectRatio="xMidYMid meet" height="623" width="1000" xmlns="http://www.w3.org/2000/svg" xmlns:xlink="http://www.w3.org/1999/xlink"><g id="tight-bounds" transform="matrix(1,0,0,1,0.2400000000000091,-0.09999999999999432)"><svg viewBox="0 0 395.52 247.2" height="247.2" width="395.52"><g><svg></svg></g><g><svg viewBox="0 0 395.52 247.2" height="247.2" width="395.52"><g transform="matrix(1,0,0,1,39.55199999999999,91.83224721255377)"><svg viewBox="0 0 316.416 63.53550557489245" height="63.53550557489245" width="316.416"><g><svg viewBox="0 0 316.416 63.53550557489245" height="63.53550557489245" width="316.416"><g><svg viewBox="0 0 316.416 63.53550557489245" height="63.53550557489245" width="316.416"><g><svg viewBox="0 0 316.416 63.53550557489245" height="63.53550557489245" width="316.416"><g><svg viewBox="0 0 316.416 63.53550557489245" height="63.53550557489245" width="316.416"><g><svg viewBox="0 0 316.416 34.26801575280218" height="34.26801575280218" width="316.416"><g transform="matrix(1,0,0,1,0,0)"><svg width="316.416" viewBox="3.549999952316284 -35.5 330.07000732421875 35.75" height="34.26801575280218" data-palette-color="#ba3b0a"><path d="M24.3-5.75L24.3 0 3.55 0 3.55-35 10.8-35 10.8-5.75 24.3-5.75ZM33.7-35L33.7 0 26.45 0 26.45-35 33.7-35ZM40.05-35L60.95-35 60.95-29.25 47.3-29.25 47.3-21.9 59.75-21.9 59.75-16.05 47.3-16.05 47.3 0 40.05 0 40.05-35ZM86.39-5.75L86.39 0 65.54 0 65.54-35 86.39-35 86.39-29.25 72.79-29.25 72.79-21.9 85.14-21.9 85.14-16.05 72.79-16.05 72.79-5.75 86.39-5.75ZM117.74 0.25L117.74 0.25Q110.39 0.25 106.64-4.83 102.89-9.9 102.89-17.75 102.89-25.6 106.66-30.55 110.44-35.5 117.76-35.5 125.09-35.5 128.89-30.55 132.69-25.6 132.69-17.75L132.69-17.75Q132.69-7 126.14-2.25L126.14-2.25Q122.69 0.25 117.74 0.25ZM117.84-29.75L117.84-29.75Q115.19-29.75 113.39-27.9L113.39-27.9Q110.19-24.7 110.19-17.75L110.19-17.75Q110.19-12.5 112.14-9.03 114.09-5.55 117.86-5.55 121.64-5.55 123.54-9.08 125.44-12.6 125.44-17.68 125.44-22.75 123.41-26.25 121.39-29.75 117.84-29.75ZM137.54-35L158.44-35 158.44-29.25 144.79-29.25 144.79-21.9 157.24-21.9 157.24-16.05 144.79-16.05 144.79 0 137.54 0 137.54-35ZM207.03-35L207.03 0 199.78 0 199.78-21.7 193.53-8.2 187.23-8.2 180.98-21.65 180.98 0 173.78 0 173.78-35 181.48-35 190.43-16.25 199.78-35 207.03-35ZM227.53-35L238.13 0 230.93 0 228.43-8.55 217.88-8.55 215.43 0 208.48 0 218.98-35 227.53-35ZM219.33-14.3L227.08-14.3 223.23-28.7 219.33-14.3ZM268.18-35L268.18 0.05 260.58 0.05 248.73-21.5 248.73 0 241.33 0 241.33-35 248.73-35 260.93-12.4 260.93-35 268.18-35ZM302.12-35L302.12 0.05 294.52 0.05 282.67-21.5 282.67 0 275.27 0 275.27-35 282.67-35 294.87-12.4 294.87-35 302.12-35ZM326.07-35L333.62-35 322.87-14.75 322.87 0 315.62 0 315.62-14.75 305.32-35 312.97-35 319.32-21.3 326.07-35Z" opacity="1" transform="matrix(1,0,0,1,0,0)" fill="#ba3b0a" class="undefined-text-0" data-fill-palette-color="primary" id="text-0"></path></svg></g></svg></g><g transform="matrix(1,0,0,1,0,42.3578718396607)"><svg viewBox="0 0 316.416 21.177633735231744" height="21.177633735231744" width="316.416"><g transform="matrix(1,0,0,1,0,0)"><svg width="316.416" viewBox="1.5 -35.599998474121094 537.8800048828125 36" height="21.177633735231744" data-palette-color="#ba3b0a"><path d="M1.5-1.15L1.5-1.15 1.5-4.3Q3.5-2.95 5.8-2.95L5.8-2.95Q10.35-2.95 10.35-7.75L10.35-7.75 10.35-33.7 13.45-33.7 13.45-8.25Q13.45 0 6.1 0L6.1 0Q3.4 0 1.5-1.15ZM76.98-11.25L76.98-25.35 80.03-25.35 80.03 0 76.98 0 76.98-4.55Q74.98 0.35 68.93 0.35L68.93 0.35Q65.23 0.35 63.05-1.88 60.88-4.1 60.88-7.75L60.88-7.75 60.88-25.35 63.93-25.35 63.93-8.6Q63.93-5.7 65.45-4.15 66.98-2.6 69.48-2.6L69.48-2.6Q72.83-2.6 74.9-5 76.98-7.4 76.98-11.25L76.98-11.25ZM140.8-24.45L140.8-24.45 140.8-21.4Q138.45-22.75 134.45-22.75L134.45-22.75Q132.25-22.75 130.98-21.73 129.7-20.7 129.7-19.05L129.7-19.05Q129.7-18.05 130.08-17.3 130.45-16.55 131.38-15.93 132.3-15.3 132.95-15 133.6-14.7 135.05-14.1L135.05-14.1Q138.55-12.7 140.43-11.03 142.3-9.35 142.3-6.5L142.3-6.5Q142.3-3.35 140.13-1.53 137.95 0.3 134.15 0.3L134.15 0.3Q129.55 0.3 126.75-1.2L126.75-1.2 126.75-4.35Q130.1-2.45 133.95-2.45L133.95-2.45Q136.5-2.45 137.83-3.5 139.15-4.55 139.15-6.25L139.15-6.25Q139.15-8.25 137.78-9.35 136.4-10.45 133.25-11.7L133.25-11.7Q130.2-12.9 128.4-14.5 126.6-16.1 126.6-18.9L126.6-18.9Q126.6-21.95 128.85-23.78 131.1-25.6 134.5-25.6L134.5-25.6Q138.6-25.6 140.8-24.45ZM199.73-22.75L192.48-22.75 192.48-7Q192.48-2.65 196.53-2.65L196.53-2.65Q198.53-2.65 199.93-3.8L199.93-3.8 199.93-0.7Q198.48 0.25 196.58 0.25L196.58 0.25Q189.38 0.25 189.38-7.15L189.38-7.15 189.38-22.75 185.23-22.75 185.23-25.35 189.38-25.35 189.38-31.7 192.48-31.7 192.48-25.35 199.73-25.35 199.73-22.75ZM321.98-32.35L321.98-32.35 321.98-29.1Q319.78-30.25 318.08-30.73 316.38-31.2 313.38-31.2L313.38-31.2Q307.58-31.2 303.7-27.28 299.83-23.35 299.83-17.05L299.83-17.05Q299.83-10.45 303.65-6.5 307.48-2.55 313.83-2.55L313.83-2.55Q318.78-2.55 322.08-5.15L322.08-5.15 322.08-1.75Q319.03 0.4 313.68 0.4L313.68 0.4Q306.03 0.4 301.33-4.25 296.63-8.9 296.63-17.05L296.63-17.05Q296.63-24.65 301.48-29.4 306.33-34.15 313.48-34.15L313.48-34.15Q318.43-34.15 321.98-32.35ZM367.8-35.35L370.85-35.35 370.85-21Q373.15-25.75 378.9-25.75L378.9-25.75Q382.55-25.75 384.75-23.5 386.95-21.25 386.95-17.7L386.95-17.7 386.95 0 383.9 0 383.9-16.75Q383.9-19.7 382.4-21.25 380.9-22.8 378.45-22.8L378.45-22.8Q375.35-22.8 373.1-20.43 370.85-18.05 370.85-14L370.85-14 370.85 0 367.8 0 367.8-35.35ZM437.43 0L434.38 0 434.38-25.35 437.43-25.35 437.43 0ZM434.38-31.95Q433.78-32.55 433.78-33.45 433.78-34.35 434.38-34.98 434.98-35.6 435.88-35.6 436.78-35.6 437.4-34.98 438.03-34.35 438.03-33.45 438.03-32.55 437.4-31.95 436.78-31.35 435.88-31.35 434.98-31.35 434.38-31.95ZM488.4 0L485.35 0 485.35-35.35 488.4-35.35 488.4 0ZM539.38 0L536.33 0 536.33-35.35 539.38-35.35 539.38 0Z" opacity="1" transform="matrix(1,0,0,1,0,0)" fill="#ba3b0a" class="undefined-text-1" data-fill-palette-color="secondary" id="text-1"></path></svg></g></svg></g></svg></g></svg></g></svg></g></svg></g></svg></g><g mask="url(#b1cdf567-16da-4c91-b81f-f51f31268da5)"><g transform="matrix(0.004694621003543746, 0, 0, 0.004694621003543746, 84.52400841919344, 1)"><svg xmlns="http://www.w3.org/2000/svg" xmlns:xlink="http://www.w3.org/1999/xlink" xml:space="preserve" version="1.1" style="shape-rendering:geometricPrecision;text-rendering:geometricPrecision;image-rendering:optimizeQuality;" viewBox="5879.63671875 3885.0048828125 48240.73828125 52229.98828125" x="0" y="0" fill-rule="evenodd" clip-rule="evenodd" height="52229.98828125" width="48240.73828125" class="icon-none" data-fill-palette-color="accent" id="none"><g fill="#ba3b0a" data-fill-palette-color="accent"><path class="" d="M53720.37 41448.89c220.91 0 400 179.09 400 400 0 220.91-179.09 400-400 400l-19795.48 0 0 13723.54-800 0 0-13723.54-1017.12 0 0 13866.1-500 0 0-13866.1c-304.77 0.09-453.94 2.29-598.15 4.39-1271.85 18.62-2264.75 33.16-3469.27-707.5l-1161.56-714.25 0 15140.9-800 0 0-15632.83-8798.9-5410.5 0 13645.05-800 0 0-14136.97-1054.84-648.63-16.11 14574.14-498.04 0 16.45-14880.18-5140.65-3161.02 0 18252.66-800 0 0-18744.58-748.14-460.04c-550.25-338.36-977.18-611.43-1295.32-984.91-337.35-396.02-523.63-867.11-550.99-1568.44l-1.56-14.06 0-6047.13c-15.6-113.62-14.69-224.82 2.74-333 2.18-18.73 5.64-37.06 10.32-54.91 2.48-11.56 5.15-23.08 8.02-34.57 73.64-294.4 266.18-543.36 578.03-734.08 427.03-261.15 1107.59-413.95 2039.7-413.13l743.87 0.67-2166.78-12395.24c-24.15-79.44-36.63-160.3-36.63-242.53 0-839.49 1282.32-1538.87 3355.53-1990.95 1904.74-415.34 4529.7-672.25 7423.35-672.25 2893.65 0 5518.61 256.91 7423.35 672.25 2012.89 438.93 3280.14 1110.98 3352.18 1918.05 8.45 45.54 9.09 93.34 0.66 141.65l-0.62 3.55c-4.07 46.03-12.13 91.6-23.9 136.73l-970.72 5553.05 2859.75-341.93c31.32-3.7 62.2-3.65 92.24-0.25 633.45 28.59 1054.72 249.64 1326.4 597.07 266.22 340.45 364.46 781.38 367.14 1267.73 6.71 1218.09-265.32 3170.15-904.16 4768.09-83.04 207.72-172.5 409.93-268.6 604.48l12687.72 11.34c220.05 0 398.44 178.39 398.44 398.44 0 220.05-178.39 398.44-398.44 398.44l-13070.06-11.68c-26.28 0-51.95-2.56-76.8-7.42-392.66 569.26-865.68 1014.66-1428.37 1252.02-262.95 110.92-398.46 166.19-534.68 221.76-1340.14 546.68-2680.12 1093.5-3065.44 2368.09l-578.59 3309.85c-28.59 162.47-47.91 308.3-68.09 460.76-94.42 713.24-204.7 1546.23-713.4 2026.65-256.85 242.55-608.85 464.77-1038.51 660.62-331.62 151.16-710.76 287.54-1128.74 406.11l5871.51 3610.44c1010.9 621.6 1900.99 608.57 3041.13 591.88 252.01-3.68 513.4-7.51 627.41-7.51l22092.72 0c220.91 0 400 179.09 400 400 0 220.91-179.09 400-400 400l-22092.72 0c-293.45 0-445.95 1.9-583.42 3.89l0 5756.61c237.9-3.47 476.03-6.87 583.42-6.87l22092.72 0z m-26593.1-26263.9l2046.37-210.12c25.58-2.62 50.84-2.73 75.54-0.58 294.11 15.1 496.03 126.34 632.56 300.92 129.81 166.02 177.65 368.28 178.86 585.9 2.38 432.76-94.15 1126.02-320.85 1693.07-185.69 464.46-465.13 861.39-864 1029.64-114.25 48.19-253.43 95.63-421.87 153.02-715.52 243.83-2023.76 689.79-2179.61 1327.78l-339.77 1943.7c681.09-560.63 1563.48-920.62 2445.87-1280.57 218.35-89.08 437.48-178.48 525.3-215.52 742.53-313.22 1311.58-1174.35 1724.87-2208.12 599.08-1498.5 854.18-3327.41 847.9-4468.09-1.77-320.81-54.93-596.78-198.38-780.23-129.32-165.39-356.19-272.36-721.92-290.67l-3072.07 367.32-358.8 2052.55z m-615.33 3520.04c558.65-340.32 1223.59-566.98 1685.68-724.45 164.89-56.18 301.07-102.6 368.75-131.14 172.84-72.9 318.42-306.14 432.76-592.14 186.93-467.58 266.54-1037.71 264.59-1393.07-0.25-47.84-2.61-83.2-8.46-95.64l-2270.77 233.17-472.55 2703.27z m-843.17 9246.74c23.73-135.91 153.15-226.85 289.06-203.12 135.91 23.73 226.85 153.15 203.12 289.06-27.48 156.19-47.63 308.23-68.67 467.21-91.17 688.74-197.66 1493.1-667.7 1936.99-148.16 139.92-353.39 279.99-597.04 414.42-248.77 137.24-540.86 270.62-854.62 393.09-128.36 50.15-273.09-13.24-323.24-141.6-50.15-128.36 13.24-273.09 141.6-323.24 293.79-114.68 565.93-238.81 796.02-365.75 208.27-114.91 379.01-230.21 495.48-340.2 341.14-322.17 435-1031.13 515.36-1638.17 23.87-180.32 46.71-352.72 70.63-488.69z m9258.06-6065.44c-137.52 0-249.02-111.5-249.02-249.02 0-137.52 111.5-249.02 249.02-249.02l6323.52 5.65c137.52 0 249.02 111.5 249.02 249.02 0 137.52-111.5 249.02-249.02 249.02l-6323.52-5.65z m-23204.75-13915.95c737.67-117.15 1547.92-213.7 2413.01-285.72 1154.27-96.11 2406.26-148.75 3713.75-148.75 1336.14 0 2614.18 54.97 3789.09 155.11 835.29 71.19 1619.57 165.55 2336.56 279.54 399.99-64.91 777.35-136 1128.94-212.67 230.6-50.28 449.06-101.8 654.52-154.31-820.74-214.44-1825.86-395.16-2963.77-530.91-1466.65-174.98-3151.7-274.47-4945.34-274.47-1815.21 0-3519.38 101.92-4998.66 280.88-1116.68 135.09-2103.37 313.46-2910.92 524.38 205.6 52.55 424.21 104.11 654.99 154.43 351.27 76.6 728.25 147.63 1127.83 212.49z m11180.53 152.37c-412.64-50.41-843.2-94.9-1289.28-132.91-1165.97-99.37-2435.65-153.93-3764.49-153.93-1300.41 0-2544.03 52.23-3689.15 147.57-472.45 39.34-928.11 86-1364.1 139.34 1489.79 183.7 3213.97 288.58 5053.25 288.58 1839.49 0 3563.85-104.92 5053.77-288.65z m-13845.14-778.17c943.18-316.86 2226.83-579.26 3734.11-761.6 1499.81-181.45 3224.17-284.78 5057.26-284.78 1811.21 0 3516.44 100.9 5003.94 278.37 1531.49 182.71 2834.5 447.49 3787.87 767.84 663.29-227.26 1076.56-465.41 1167.83-698.8l18.83-107.71c-17.24-407.35-1054.77-835.43-2723.88-1199.39-1851.64-403.77-4416.15-653.51-7254.59-653.51-2838.44 0-5402.95 249.74-7254.59 653.51-1649.25 359.63-2681.89 781.86-2722.87 1184.83l23.86 136.46c102.2 228.9 512.15 462.07 1162.23 684.78z m-2366.78 13167.82l0 185.41c13.39 56.82 37.6 118.89 72.6 185.76 191.77 366.4 656.57 797.6 1394.03 1251.07l1827.99 1124.04-572.62-3275.71-883.19-0.79c-777.3-0.69-1316.42 109.36-1624.08 297.51-117.52 71.87-188.94 150.45-214.73 232.71z m0 1525.68l0 4764.04-0.96 0c21.16 490.26 142.6 808.8 359.77 1063.74 238.43 279.91 616.75 520.44 1107.82 822.41l19211.91 11813.53 0-5614.87-6391.89-3930.42c-344.55 63.41-706.35 116.64-1082.13 158.55-649.22 72.41-1337.09 111.53-2046.37 111.53-1473.63 0-2839.84-166.51-3951.06-448.5-1183.19-300.26-2095.96-740.77-2572.36-1263.27-379.13-415.79-472.4-1105.91-550.88-1686.68-16.67-123.36-32.53-240.62-55.47-371.9l-549.9-3145.74-2430.61-1494.6c-420.86-258.79-770.35-520.42-1047.87-777.82z m21178.54 13140.61l0 5630.56 89.88 55.27c872.23 536.33 1654.55 600.19 2585.12 596.9l0-5756.45c-946.52 4.55-1759.87-50.94-2675-526.28z m-19782.75-27424.87l3420.09 19564.92c18.09 103.5 37.83 249.5 58.59 403.14 63.11 467.08 138.13 1022.12 350.88 1255.44 369.65 405.42 1142.5 763.62 2175.5 1025.77 1049.28 266.27 2347.94 423.5 3757.3 423.5 687.89 0 1345.97-36.93 1958.87-105.29 636.68-71 1227.97-175.46 1756.37-307.24 505.69-126.12 951.25-276.18 1321-444.72 349.28-159.21 628.39-333.21 822.89-516.88 302.48-285.66 392.55-965.99 469.66-1548.51 24.73-186.83 48.39-365.45 71.21-495.14l2501.03-14307.33 0.71-4.07 864.54-4945.67c-573.55 309.42-1371.43 575.56-2342.93 787.41-1904.74 415.34-4529.7 672.25-7423.35 672.25-2893.65 0-5518.61-256.91-7423.35-672.25-969.31-211.37-1765.74-476.8-2339.01-785.33z" fill="#ba3b0a" fill-rule="nonzero" data-fill-palette-color="accent"></path></g></svg></g></g></svg></g><defs><mask id="f4f6df18-23f2-43dd-b62c-1c5d01e4a477"><rect width="640" height="400" fill="white"></rect><rect width="348.05760000000004" height="79.7152177486095" fill="black" x="145.97119999999998" y="160.14239112569524" id="transform-me" transform="matrix(1,0,0,1,-122.24000000000001,-76.4)"></rect></mask><mask id="aa72d7c8-a55e-4700-b280-fb2ea57f703a"><rect width="640" height="400" fill="white"></rect><rect width="348.05760000000004" height="79.7152177486095" fill="black" x="145.97119999999998" y="160.14239112569524" id="transform-me" transform="matrix(1,0,0,1,-122.24000000000001,-76.4)"></rect></mask><mask id="dd5ad1cb-f037-414e-8ada-f2567e73fac0"><rect width="640" height="400" fill="white"></rect><rect width="348.05760000000004" height="79.7152177486095" fill="black" x="145.97119999999998" y="160.14239112569524" id="transform-me" transform="matrix(1,0,0,1,-122.24000000000001,-76.4)"></rect></mask><mask id="2b9f6436-c7bf-4a7e-b500-e87b78b22cec"><rect width="640" height="400" fill="white"></rect><rect width="348.05760000000004" height="79.7152177486095" fill="black" x="145.97119999999998" y="160.14239112569524" id="transform-me" transform="matrix(1,0,0,1,-122.24000000000001,-76.4)"></rect></mask><mask id="b1cdf567-16da-4c91-b81f-f51f31268da5"><rect width="640" height="400" fill="white"></rect><rect width="348.05760000000004" height="79.7152177486095" fill="black" x="145.97119999999998" y="160.14239112569524" id="transform-me" transform="matrix(1,0,0,1,-122.24000000000001,-76.4)"></rect></mask></defs></svg><rect width="395.52" height="247.2" fill="none" stroke="none" visibility="hidden"></rect></g></svg></g></svg>